# xmcd
#
# Track frame offsets: 
#        150
#        14855
#        29605
#        42667
#        55177
#        67470
#        80187
#        92897
#        104790
#        116807
#        129990
#        142390
#        155577
#        169397
#        183140
#        195502
#        207807
#        221525
#        235252
#        249915
#        264270
#        276350
#        287995
#        300095
#        312940
#
# Disc length: 4335 seconds
#
# Revision: 2
# Processed by: cddbd v1.5.2PL0 Copyright (c) Steve Scherf et al.
# Submitted via: ExactAudioCopy v1.0b1
#
DISCID=8b10ed19
DTITLE=T-Bone Walker - The Complete Capitol - Black and White Recordings
DTITLE=[CD1]
DYEAR=1995
DGENRE=Blues
TTITLE0=T-Bone Blues (mono)
TTITLE1=I Got A Break Baby (mono)
TTITLE2=Mean Old World (mono)
TTITLE3=No Worry Blues (alt) (mono)
TTITLE4=No Worry Blues (mono)
TTITLE5=Don't Leave Me Baby (alt) (mono)
TTITLE6=Don't Leave Me Baby (mono)
TTITLE7=Bobby Sox Baby (alt) (mono)
TTITLE8=Bobby Sox Baby (mono)
TTITLE9=I'm Gonna Find My Baby (mono)
TTITLE10=I'm In An Awful Mood (mono)
TTITLE11=It's A Lowdown Dirty Deal (mono)
TTITLE12=Don't Give Me The Runaround (mono)
TTITLE13=Hard Pain Blues (mono)
TTITLE14=I Know Your Wig Is Gone (mono)
TTITLE15=T-Bone Jumps Again (mono)
TTITLE16=Call It Stormy Monday (alt) (mono)
TTITLE17=Call It Stormy Monday (mono)
TTITLE18=She Had To Let Me Down (alt) (mono)
TTITLE19=She Had To Let Me Down (mono)
TTITLE20=She's My Old Time Used To Be (mono)
TTITLE21=Dream Girl Blues (alt) (mono)
TTITLE22=Dream Girl Blues (mono)
TTITLE23=Midnight Blues (alt) (mono)
TTITLE24=Midnight Blues (mono)
EXTD=
EXTT0=
EXTT1=
EXTT2=
EXTT3=
EXTT4=
EXTT5=
EXTT6=
EXTT7=
EXTT8=
EXTT9=
EXTT10=
EXTT11=
EXTT12=
EXTT13=
EXTT14=
EXTT15=
EXTT16=
EXTT17=
EXTT18=
EXTT19=
EXTT20=
EXTT21=
EXTT22=
EXTT23=
EXTT24=
PLAYORDER=
